<mxfile host="app.diagrams.net" agent="Mozilla/5.0 (Windows NT 10.0; Win64; x64) AppleWebKit/537.36 (KHTML, like Gecko) Chrome/133.0.0.0 Safari/537.36 Edg/133.0.0.0" version="26.0.15">
  <diagram name="Sayfa -1" id="AdCGtbygOlPYQi2upEJK">
    <mxGraphModel dx="1426" dy="789" grid="1" gridSize="10" guides="1" tooltips="1" connect="1" arrows="1" fold="1" page="1" pageScale="1" pageWidth="827" pageHeight="1169" math="0" shadow="0">
      <root>
        <mxCell id="0" />
        <mxCell id="1" parent="0" />
        <mxCell id="2rDRMEp94gqrxIJUxtEt-9" value="" style="edgeStyle=orthogonalEdgeStyle;rounded=0;orthogonalLoop=1;jettySize=auto;html=1;" edge="1" parent="1" source="2rDRMEp94gqrxIJUxtEt-1" target="2rDRMEp94gqrxIJUxtEt-4">
          <mxGeometry relative="1" as="geometry" />
        </mxCell>
        <mxCell id="2rDRMEp94gqrxIJUxtEt-1" value="Testere Kesim" style="rounded=0;whiteSpace=wrap;html=1;" vertex="1" parent="1">
          <mxGeometry x="200" y="40" width="120" height="60" as="geometry" />
        </mxCell>
        <mxCell id="2rDRMEp94gqrxIJUxtEt-10" value="" style="edgeStyle=orthogonalEdgeStyle;rounded=0;orthogonalLoop=1;jettySize=auto;html=1;" edge="1" parent="1" source="2rDRMEp94gqrxIJUxtEt-2" target="2rDRMEp94gqrxIJUxtEt-5">
          <mxGeometry relative="1" as="geometry" />
        </mxCell>
        <mxCell id="2rDRMEp94gqrxIJUxtEt-2" value="Boy Düzleme" style="rounded=0;whiteSpace=wrap;html=1;" vertex="1" parent="1">
          <mxGeometry x="520" y="40" width="120" height="60" as="geometry" />
        </mxCell>
        <mxCell id="2rDRMEp94gqrxIJUxtEt-7" value="" style="edgeStyle=orthogonalEdgeStyle;rounded=0;orthogonalLoop=1;jettySize=auto;html=1;" edge="1" parent="1" source="2rDRMEp94gqrxIJUxtEt-3" target="2rDRMEp94gqrxIJUxtEt-1">
          <mxGeometry relative="1" as="geometry" />
        </mxCell>
        <mxCell id="2rDRMEp94gqrxIJUxtEt-3" value="A Kodlu&lt;div&gt;Hammadde&lt;/div&gt;" style="rounded=1;whiteSpace=wrap;html=1;" vertex="1" parent="1">
          <mxGeometry x="40" y="40" width="120" height="60" as="geometry" />
        </mxCell>
        <mxCell id="2rDRMEp94gqrxIJUxtEt-8" value="" style="edgeStyle=orthogonalEdgeStyle;rounded=0;orthogonalLoop=1;jettySize=auto;html=1;" edge="1" parent="1" source="2rDRMEp94gqrxIJUxtEt-4" target="2rDRMEp94gqrxIJUxtEt-2">
          <mxGeometry relative="1" as="geometry" />
        </mxCell>
        <mxCell id="2rDRMEp94gqrxIJUxtEt-4" value="P Kodu&lt;div&gt;(Kütük Hali)&lt;/div&gt;" style="shape=document;whiteSpace=wrap;html=1;boundedLbl=1;" vertex="1" parent="1">
          <mxGeometry x="360" y="30" width="120" height="80" as="geometry" />
        </mxCell>
        <mxCell id="2rDRMEp94gqrxIJUxtEt-11" value="" style="edgeStyle=orthogonalEdgeStyle;rounded=0;orthogonalLoop=1;jettySize=auto;html=1;" edge="1" parent="1" source="2rDRMEp94gqrxIJUxtEt-5" target="2rDRMEp94gqrxIJUxtEt-6">
          <mxGeometry relative="1" as="geometry" />
        </mxCell>
        <mxCell id="2rDRMEp94gqrxIJUxtEt-5" value="Çap Tornalama" style="rounded=0;whiteSpace=wrap;html=1;" vertex="1" parent="1">
          <mxGeometry x="680" y="40" width="120" height="60" as="geometry" />
        </mxCell>
        <mxCell id="2rDRMEp94gqrxIJUxtEt-15" value="" style="edgeStyle=orthogonalEdgeStyle;rounded=0;orthogonalLoop=1;jettySize=auto;html=1;" edge="1" parent="1" source="2rDRMEp94gqrxIJUxtEt-6" target="2rDRMEp94gqrxIJUxtEt-12">
          <mxGeometry relative="1" as="geometry" />
        </mxCell>
        <mxCell id="2rDRMEp94gqrxIJUxtEt-6" value="R Kodu&lt;div&gt;(Yarı Özelleşmiş Ürün)&lt;/div&gt;" style="shape=document;whiteSpace=wrap;html=1;boundedLbl=1;" vertex="1" parent="1">
          <mxGeometry x="680" y="150" width="120" height="80" as="geometry" />
        </mxCell>
        <mxCell id="2rDRMEp94gqrxIJUxtEt-16" value="" style="edgeStyle=orthogonalEdgeStyle;rounded=0;orthogonalLoop=1;jettySize=auto;html=1;" edge="1" parent="1" source="2rDRMEp94gqrxIJUxtEt-12" target="2rDRMEp94gqrxIJUxtEt-14">
          <mxGeometry relative="1" as="geometry" />
        </mxCell>
        <mxCell id="2rDRMEp94gqrxIJUxtEt-12" value="Uç Yuvası" style="rounded=0;whiteSpace=wrap;html=1;" vertex="1" parent="1">
          <mxGeometry x="520" y="160" width="120" height="60" as="geometry" />
        </mxCell>
        <mxCell id="2rDRMEp94gqrxIJUxtEt-13" value="Taşlama" style="rounded=0;whiteSpace=wrap;html=1;" vertex="1" parent="1">
          <mxGeometry x="200" y="160" width="120" height="60" as="geometry" />
        </mxCell>
        <mxCell id="2rDRMEp94gqrxIJUxtEt-17" value="" style="edgeStyle=orthogonalEdgeStyle;rounded=0;orthogonalLoop=1;jettySize=auto;html=1;" edge="1" parent="1" source="2rDRMEp94gqrxIJUxtEt-14" target="2rDRMEp94gqrxIJUxtEt-13">
          <mxGeometry relative="1" as="geometry" />
        </mxCell>
        <mxCell id="2rDRMEp94gqrxIJUxtEt-14" value="Kumlama" style="rounded=0;whiteSpace=wrap;html=1;" vertex="1" parent="1">
          <mxGeometry x="360" y="160" width="120" height="60" as="geometry" />
        </mxCell>
        <mxCell id="2rDRMEp94gqrxIJUxtEt-18" value="D Kodu&lt;div&gt;(Demonte Mamul)&lt;/div&gt;" style="shape=document;whiteSpace=wrap;html=1;boundedLbl=1;" vertex="1" parent="1">
          <mxGeometry x="140" y="520" width="120" height="80" as="geometry" />
        </mxCell>
      </root>
    </mxGraphModel>
  </diagram>
</mxfile>
